<?xml version="1.0" encoding="utf-8" ?>
<svg baseProfile="full" height="210" version="1.1" width="435" xmlns="http://www.w3.org/2000/svg" xmlns:ev="http://www.w3.org/2001/xml-events" xmlns:xlink="http://www.w3.org/1999/xlink"><defs /><g stroke="black" stroke-linecap="round" stroke-width="0.25"><g fill="#DDBB99"><rect height="25" width="25" x="80" y="30" /><rect height="25" width="25" x="55" y="55" /><rect height="25" width="25" x="80" y="55" /><rect height="25" width="25" x="105" y="55" /><rect height="25" width="25" x="55" y="80" /></g><g fill="#EEAAAA"><rect height="25" width="25" x="180" y="30" /><rect height="25" width="25" x="180" y="55" /><rect height="25" width="25" x="180" y="80" /><rect height="25" width="25" x="180" y="105" /><rect height="25" width="25" x="180" y="130" /></g><g fill="#CCCC88"><rect height="25" width="25" x="5" y="5" /><rect height="25" width="25" x="30" y="5" /><rect height="25" width="25" x="5" y="30" /><rect height="25" width="25" x="5" y="55" /><rect height="25" width="25" x="5" y="80" /></g><g fill="#AAEEAA"><rect height="25" width="25" x="105" y="5" /><rect height="25" width="25" x="105" y="30" /><rect height="25" width="25" x="130" y="30" /><rect height="25" width="25" x="130" y="55" /><rect height="25" width="25" x="130" y="80" /></g><g fill="#BBDD99"><rect height="25" width="25" x="55" y="130" /><rect height="25" width="25" x="80" y="130" /><rect height="25" width="25" x="30" y="155" /><rect height="25" width="25" x="55" y="155" /><rect height="25" width="25" x="80" y="155" /></g><g fill="#99DDBB"><rect height="25" width="25" x="130" y="5" /><rect height="25" width="25" x="155" y="5" /><rect height="25" width="25" x="180" y="5" /><rect height="25" width="25" x="155" y="30" /><rect height="25" width="25" x="155" y="55" /></g><g fill="#88CCCC"><rect height="25" width="25" x="130" y="155" /><rect height="25" width="25" x="180" y="155" /><rect height="25" width="25" x="130" y="180" /><rect height="25" width="25" x="155" y="180" /><rect height="25" width="25" x="180" y="180" /></g><g fill="#99BBDD"><rect height="25" width="25" x="5" y="130" /><rect height="25" width="25" x="5" y="155" /><rect height="25" width="25" x="5" y="180" /><rect height="25" width="25" x="30" y="180" /><rect height="25" width="25" x="55" y="180" /></g><g fill="#AAAAEE"><rect height="25" width="25" x="55" y="5" /><rect height="25" width="25" x="80" y="5" /><rect height="25" width="25" x="30" y="30" /><rect height="25" width="25" x="55" y="30" /><rect height="25" width="25" x="30" y="55" /></g><g fill="#BB99DD"><rect height="25" width="25" x="30" y="80" /><rect height="25" width="25" x="5" y="105" /><rect height="25" width="25" x="30" y="105" /><rect height="25" width="25" x="55" y="105" /><rect height="25" width="25" x="30" y="130" /></g><g fill="#CC88CC"><rect height="25" width="25" x="155" y="80" /><rect height="25" width="25" x="130" y="105" /><rect height="25" width="25" x="155" y="105" /><rect height="25" width="25" x="155" y="130" /><rect height="25" width="25" x="155" y="155" /></g><g fill="#DD99BB"><rect height="25" width="25" x="105" y="130" /><rect height="25" width="25" x="130" y="130" /><rect height="25" width="25" x="105" y="155" /><rect height="25" width="25" x="80" y="180" /><rect height="25" width="25" x="105" y="180" /></g><path d="M 5 5 l 25 0 M 30 5 l 25 0 M 55 5 l 25 0 M 80 5 l 25 0 M 105 5 l 25 0 M 130 5 l 25 0 M 155 5 l 25 0 M 180 5 l 25 0 M 30 30 l 25 0 M 80 30 l 25 0 M 130 30 l 25 0 M 180 30 l 25 0 M 55 55 l 25 0 M 105 55 l 25 0 M 30 80 l 25 0 M 80 80 l 25 0 M 105 80 l 25 0 M 155 80 l 25 0 M 5 105 l 25 0 M 55 105 l 25 0 M 130 105 l 25 0 M 5 130 l 25 0 M 55 130 l 25 0 M 80 130 l 25 0 M 105 130 l 25 0 M 130 130 l 25 0 M 30 155 l 25 0 M 130 155 l 25 0 M 180 155 l 25 0 M 30 180 l 25 0 M 55 180 l 25 0 M 80 180 l 25 0 M 155 180 l 25 0 M 5 205 l 25 0 M 30 205 l 25 0 M 55 205 l 25 0 M 80 205 l 25 0 M 105 205 l 25 0 M 130 205 l 25 0 M 155 205 l 25 0 M 180 205 l 25 0 M 5 5 l 0 25 M 55 5 l 0 25 M 105 5 l 0 25 M 130 5 l 0 25 M 205 5 l 0 25 M 5 30 l 0 25 M 30 30 l 0 25 M 80 30 l 0 25 M 105 30 l 0 25 M 155 30 l 0 25 M 180 30 l 0 25 M 205 30 l 0 25 M 5 55 l 0 25 M 30 55 l 0 25 M 55 55 l 0 25 M 130 55 l 0 25 M 155 55 l 0 25 M 180 55 l 0 25 M 205 55 l 0 25 M 5 80 l 0 25 M 30 80 l 0 25 M 55 80 l 0 25 M 80 80 l 0 25 M 130 80 l 0 25 M 155 80 l 0 25 M 180 80 l 0 25 M 205 80 l 0 25 M 5 105 l 0 25 M 80 105 l 0 25 M 130 105 l 0 25 M 180 105 l 0 25 M 205 105 l 0 25 M 5 130 l 0 25 M 30 130 l 0 25 M 55 130 l 0 25 M 105 130 l 0 25 M 155 130 l 0 25 M 180 130 l 0 25 M 205 130 l 0 25 M 5 155 l 0 25 M 30 155 l 0 25 M 105 155 l 0 25 M 130 155 l 0 25 M 155 155 l 0 25 M 180 155 l 0 25 M 205 155 l 0 25 M 5 180 l 0 25 M 80 180 l 0 25 M 130 180 l 0 25 M 205 180 l 0 25" stroke-width="3" /></g><g stroke="black" stroke-linecap="round" stroke-width="0.25"><g fill="#DDBB99"><rect height="25" width="25" x="305" y="5" /><rect height="25" width="25" x="255" y="30" /><rect height="25" width="25" x="280" y="30" /><rect height="25" width="25" x="305" y="30" /><rect height="25" width="25" x="280" y="55" /></g><g fill="#EEAAAA"><rect height="25" width="25" x="405" y="80" /><rect height="25" width="25" x="405" y="105" /><rect height="25" width="25" x="405" y="130" /><rect height="25" width="25" x="405" y="155" /><rect height="25" width="25" x="405" y="180" /></g><g fill="#CCCC88"><rect height="25" width="25" x="305" y="155" /><rect height="25" width="25" x="230" y="180" /><rect height="25" width="25" x="255" y="180" /><rect height="25" width="25" x="280" y="180" /><rect height="25" width="25" x="305" y="180" /></g><g fill="#AAEEAA"><rect height="25" width="25" x="405" y="30" /><rect height="25" width="25" x="380" y="55" /><rect height="25" width="25" x="405" y="55" /><rect height="25" width="25" x="380" y="80" /><rect height="25" width="25" x="380" y="105" /></g><g fill="#BBDD99"><rect height="25" width="25" x="230" y="105" /><rect height="25" width="25" x="230" y="130" /><rect height="25" width="25" x="255" y="130" /><rect height="25" width="25" x="230" y="155" /><rect height="25" width="25" x="255" y="155" /></g><g fill="#99DDBB"><rect height="25" width="25" x="280" y="105" /><rect height="25" width="25" x="280" y="130" /><rect height="25" width="25" x="305" y="130" /><rect height="25" width="25" x="330" y="130" /><rect height="25" width="25" x="280" y="155" /></g><g fill="#88CCCC"><rect height="25" width="25" x="330" y="155" /><rect height="25" width="25" x="380" y="155" /><rect height="25" width="25" x="330" y="180" /><rect height="25" width="25" x="355" y="180" /><rect height="25" width="25" x="380" y="180" /></g><g fill="#99BBDD"><rect height="25" width="25" x="230" y="5" /><rect height="25" width="25" x="255" y="5" /><rect height="25" width="25" x="280" y="5" /><rect height="25" width="25" x="230" y="30" /><rect height="25" width="25" x="230" y="55" /></g><g fill="#AAAAEE"><rect height="25" width="25" x="380" y="5" /><rect height="25" width="25" x="405" y="5" /><rect height="25" width="25" x="355" y="30" /><rect height="25" width="25" x="380" y="30" /><rect height="25" width="25" x="355" y="55" /></g><g fill="#BB99DD"><rect height="25" width="25" x="255" y="55" /><rect height="25" width="25" x="230" y="80" /><rect height="25" width="25" x="255" y="80" /><rect height="25" width="25" x="280" y="80" /><rect height="25" width="25" x="255" y="105" /></g><g fill="#CC88CC"><rect height="25" width="25" x="355" y="80" /><rect height="25" width="25" x="355" y="105" /><rect height="25" width="25" x="355" y="130" /><rect height="25" width="25" x="380" y="130" /><rect height="25" width="25" x="355" y="155" /></g><g fill="#DD99BB"><rect height="25" width="25" x="330" y="5" /><rect height="25" width="25" x="355" y="5" /><rect height="25" width="25" x="330" y="30" /><rect height="25" width="25" x="305" y="55" /><rect height="25" width="25" x="330" y="55" /></g><path d="M 230 5 l 25 0 M 255 5 l 25 0 M 280 5 l 25 0 M 305 5 l 25 0 M 330 5 l 25 0 M 355 5 l 25 0 M 380 5 l 25 0 M 405 5 l 25 0 M 255 30 l 25 0 M 280 30 l 25 0 M 355 30 l 25 0 M 405 30 l 25 0 M 255 55 l 25 0 M 305 55 l 25 0 M 380 55 l 25 0 M 230 80 l 25 0 M 280 80 l 25 0 M 305 80 l 25 0 M 330 80 l 25 0 M 355 80 l 25 0 M 405 80 l 25 0 M 230 105 l 25 0 M 280 105 l 25 0 M 255 130 l 25 0 M 305 130 l 25 0 M 330 130 l 25 0 M 380 130 l 25 0 M 305 155 l 25 0 M 330 155 l 25 0 M 380 155 l 25 0 M 230 180 l 25 0 M 255 180 l 25 0 M 280 180 l 25 0 M 355 180 l 25 0 M 230 205 l 25 0 M 255 205 l 25 0 M 280 205 l 25 0 M 305 205 l 25 0 M 330 205 l 25 0 M 355 205 l 25 0 M 380 205 l 25 0 M 405 205 l 25 0 M 230 5 l 0 25 M 305 5 l 0 25 M 330 5 l 0 25 M 380 5 l 0 25 M 430 5 l 0 25 M 230 30 l 0 25 M 255 30 l 0 25 M 330 30 l 0 25 M 355 30 l 0 25 M 405 30 l 0 25 M 430 30 l 0 25 M 230 55 l 0 25 M 255 55 l 0 25 M 280 55 l 0 25 M 305 55 l 0 25 M 355 55 l 0 25 M 380 55 l 0 25 M 430 55 l 0 25 M 230 80 l 0 25 M 305 80 l 0 25 M 355 80 l 0 25 M 380 80 l 0 25 M 405 80 l 0 25 M 430 80 l 0 25 M 230 105 l 0 25 M 255 105 l 0 25 M 280 105 l 0 25 M 305 105 l 0 25 M 355 105 l 0 25 M 380 105 l 0 25 M 405 105 l 0 25 M 430 105 l 0 25 M 230 130 l 0 25 M 280 130 l 0 25 M 355 130 l 0 25 M 405 130 l 0 25 M 430 130 l 0 25 M 230 155 l 0 25 M 280 155 l 0 25 M 305 155 l 0 25 M 330 155 l 0 25 M 355 155 l 0 25 M 380 155 l 0 25 M 405 155 l 0 25 M 430 155 l 0 25 M 230 180 l 0 25 M 330 180 l 0 25 M 405 180 l 0 25 M 430 180 l 0 25" stroke-width="3" /></g></svg>